<?xml version="1.0" standalone="no"?>
<!DOCTYPE svg PUBLIC "-//W3C//DTD SVG 20010904//EN"
 "http://www.w3.org/TR/2001/REC-SVG-20010904/DTD/svg10.dtd">
<svg version="1.0" xmlns="http://www.w3.org/2000/svg"
 width="1254.000000pt" height="1254.000000pt" viewBox="0 0 1254.000000 1254.000000"
 preserveAspectRatio="xMidYMid meet">

<g transform="translate(0.000000,1254.000000) scale(0.100000,-0.100000)"
fill="#000000" stroke="none">
<path d="M0 6270 l0 -6270 6270 0 6270 0 0 6270 0 6270 -6270 0 -6270 0 0
-6270z m5791 4603 c-50 -94 -235 -411 -244 -419 -7 -6 -51 -21 -98 -32 -506
-124 -979 -362 -1418 -712 -202 -162 -491 -460 -648 -668 -353 -470 -597
-1073 -673 -1669 -74 -571 -2 -1130 219 -1706 35 -91 39 -111 29 -130 -40 -76
-231 -387 -237 -387 -13 0 -147 327 -206 500 -290 856 -292 1734 -4 2565 210
610 550 1134 1045 1615 559 542 1259 894 2059 1034 177 31 189 31 176 9z m538
-85 c19 -35 98 -180 176 -323 78 -143 225 -411 325 -595 156 -286 290 -529
610 -1110 32 -58 115 -208 186 -335 70 -126 149 -268 174 -315 311 -565 704
-1276 838 -1515 52 -93 129 -231 170 -305 146 -263 347 -620 540 -955 290
-505 512 -898 512 -907 0 -4 -479 -8 -1065 -8 l-1065 0 0 380 0 380 375 2 376
3 -708 1240 c-390 682 -744 1303 -787 1380 -43 77 -98 174 -121 215 -89 155
-434 770 -498 885 -36 66 -72 128 -79 137 -11 16 -45 -38 -278 -450 -484 -855
-1293 -2271 -1714 -3002 -104 -179 -199 -344 -212 -367 l-25 -43 376 0 375 0
0 -380 0 -380 -1065 0 c-586 0 -1065 3 -1065 6 0 3 55 101 122 217 202 351
627 1106 1213 2157 158 283 339 607 403 720 63 113 180 322 260 465 355 637
439 787 782 1395 396 703 428 760 665 1183 88 158 162 287 165 287 3 0 21 -28
39 -62z m-1580 -6826 c85 -108 219 -278 297 -377 78 -99 227 -288 331 -420
104 -132 246 -312 315 -400 70 -88 228 -288 351 -445 123 -157 229 -285 234
-285 6 0 94 104 195 231 655 826 803 1013 961 1214 97 124 249 317 337 430 89
113 169 215 178 228 l17 22 584 -2 585 -3 -270 -241 c-418 -373 -839 -745
-1465 -1290 -315 -276 -698 -610 -848 -743 -272 -238 -275 -241 -295 -222 -12
10 -194 168 -406 352 -212 183 -486 422 -610 530 -124 108 -423 370 -665 582
-549 480 -1134 993 -1160 1018 -19 19 -9 19 580 19 l600 -1 154 -197z"/>
</g>
</svg>
